# xmcd
#
# Track frame offsets:
#	150
#	20616
#	39430
#	60514
#	81317
#	83764
#	103897
#	124920
#	142565
#	159521
#	173852
#	189046
#
# Disc length: 2652 seconds
#
# Revision: 0
# Processed by: cddbd v1.5.2PL0 Copyright (c) Steve Scherf et al.
# Submitted via: audiograbber 1.83.01
#
DISCID=8e0a5a0c
DTITLE=Mick Reid - The Man
DYEAR=2009
DGENRE=Blues
TTITLE0=Seems To Me
TTITLE1=Walk With Me
TTITLE2=I Got To Move
TTITLE3=Hey Now Baby
TTITLE4=The Man (Part 1)
TTITLE5=If ...
TTITLE6=As The Crow Flies
TTITLE7=Good On You (Revisited)
TTITLE8=Heaven's Gate
TTITLE9=Voodoo Groove
TTITLE10=The Man (Part 2)
TTITLE11=The Edge
EXTD=
EXTT0=
EXTT1=
EXTT2=
EXTT3=
EXTT4=
EXTT5=
EXTT6=
EXTT7=
EXTT8=
EXTT9=
EXTT10=
EXTT11=
PLAYORDER=
